<?xml version="1.0" encoding="UTF-8" standalone="no"?>
<!DOCTYPE svg PUBLIC "-//W3C//DTD SVG 1.1//EN"
 "http://www.w3.org/Graphics/SVG/1.1/DTD/svg11.dtd">
<!-- Generated by graphviz version 2.36.0 (20140111.2315)
 -->
<!-- Title: G Pages: 1 -->
<svg width="465pt" height="894pt"
 viewBox="0.00 0.00 465.00 894.00" xmlns="http://www.w3.org/2000/svg" xmlns:xlink="http://www.w3.org/1999/xlink">
<g id="graph0" class="graph" transform="scale(1 1) rotate(0) translate(4 890)">
<title>G</title>
<polygon fill="white" stroke="none" points="-4,4 -4,-890 461,-890 461,4 -4,4"/>
<!-- n1 -->
<g id="node1" class="node"><title>n1</title>
<g id="a_node1"><a xlink:title="[[C]]:&#45;1">
<ellipse fill="none" stroke="black" cx="213" cy="-859" rx="51.99" ry="26.7407"/>
<text text-anchor="middle" x="213" y="-862.8" font-family="Times,serif" font-size="14.00">Node1</text>
<text text-anchor="middle" x="213" y="-847.8" font-family="Times,serif" font-size="14.00">input = {}</text>
</a>
</g>
</g>
<!-- n2 -->
<g id="node2" class="node"><title>n2</title>
<g id="a_node2"><a xlink:title="[test_sparse.lua]:44">
<ellipse fill="none" stroke="black" cx="213" cy="-769" rx="143.314" ry="26.7407"/>
<text text-anchor="middle" x="213" y="-772.8" font-family="Times,serif" font-size="14.00">Node2</text>
<text text-anchor="middle" x="213" y="-757.8" font-family="Times,serif" font-size="14.00">module = nn.Linear(4596 &#45;&gt; 431)</text>
</a>
</g>
</g>
<!-- n1&#45;&gt;n2 -->
<g id="edge1" class="edge"><title>n1&#45;&gt;n2</title>
<path fill="none" stroke="black" d="M213,-832.073C213,-823.999 213,-814.943 213,-806.296"/>
<polygon fill="black" stroke="black" points="216.5,-806.046 213,-796.046 209.5,-806.046 216.5,-806.046"/>
</g>
<!-- n3 -->
<g id="node3" class="node"><title>n3</title>
<g id="a_node3"><a xlink:title="[test_sparse.lua]:43">
<ellipse fill="none" stroke="black" cx="213" cy="-668" rx="124.176" ry="37.4533"/>
<text text-anchor="middle" x="213" y="-679.3" font-family="Times,serif" font-size="14.00">Node3</text>
<text text-anchor="start" x="133" y="-664.3" font-family="Times,serif" font-size="14.00">module = nn.JoinTable</text>
<text text-anchor="middle" x="213" y="-649.3" font-family="Times,serif" font-size="14.00">mapindex = {Node4,Node5}</text>
</a>
</g>
</g>
<!-- n2&#45;&gt;n3 -->
<g id="edge2" class="edge"><title>n2&#45;&gt;n3</title>
<path fill="none" stroke="black" d="M213,-741.989C213,-733.914 213,-724.753 213,-715.716"/>
<polygon fill="black" stroke="black" points="216.5,-715.631 213,-705.631 209.5,-715.631 216.5,-715.631"/>
</g>
<!-- n4 -->
<g id="node4" class="node"><title>n4</title>
<g id="a_node4"><a xlink:title="[test_sparse.lua]:39">
<ellipse fill="none" stroke="black" cx="108" cy="-567" rx="108.342" ry="26.7407"/>
<text text-anchor="middle" x="108" y="-570.8" font-family="Times,serif" font-size="14.00">Node4</text>
<text text-anchor="middle" x="108" y="-555.8" font-family="Times,serif" font-size="14.00">module = nn.Embedding</text>
</a>
</g>
</g>
<!-- n3&#45;&gt;n4 -->
<g id="edge3" class="edge"><title>n3&#45;&gt;n4</title>
<path fill="none" stroke="black" d="M175.981,-632.096C164.947,-621.693 152.912,-610.345 142.075,-600.128"/>
<polygon fill="black" stroke="black" points="144.469,-597.575 134.792,-593.261 139.667,-602.668 144.469,-597.575"/>
</g>
<!-- n5 -->
<g id="node5" class="node"><title>n5</title>
<g id="a_node5"><a xlink:title="[test_sparse.lua]:42">
<ellipse fill="none" stroke="black" cx="318" cy="-567" rx="82.0366" ry="26.7407"/>
<text text-anchor="middle" x="318" y="-570.8" font-family="Times,serif" font-size="14.00">Node5</text>
<text text-anchor="middle" x="318" y="-555.8" font-family="Times,serif" font-size="14.00">module = nn.Sum</text>
</a>
</g>
</g>
<!-- n3&#45;&gt;n5 -->
<g id="edge4" class="edge"><title>n3&#45;&gt;n5</title>
<path fill="none" stroke="black" d="M250.019,-632.096C261.245,-621.512 273.507,-609.95 284.489,-599.596"/>
<polygon fill="black" stroke="black" points="286.983,-602.055 291.858,-592.648 282.181,-596.961 286.983,-602.055"/>
</g>
<!-- n6 -->
<g id="node6" class="node"><title>n6</title>
<g id="a_node6"><a xlink:title="[test_sparse.lua]:36">
<ellipse fill="none" stroke="black" cx="107" cy="-387" rx="87.5215" ry="26.7407"/>
<text text-anchor="middle" x="107" y="-390.8" font-family="Times,serif" font-size="14.00">Node6</text>
<text text-anchor="middle" x="107" y="-375.8" font-family="Times,serif" font-size="14.00">module = nn.Select</text>
</a>
</g>
</g>
<!-- n4&#45;&gt;n6 -->
<g id="edge5" class="edge"><title>n4&#45;&gt;n6</title>
<path fill="none" stroke="black" d="M107.855,-540.117C107.683,-509.534 107.396,-458.463 107.202,-424.026"/>
<polygon fill="black" stroke="black" points="110.702,-423.894 107.146,-413.914 103.702,-423.934 110.702,-423.894"/>
</g>
<!-- n7 -->
<g id="node7" class="node"><title>n7</title>
<g id="a_node7"><a xlink:title="[test_sparse.lua]:41">
<ellipse fill="none" stroke="black" cx="321" cy="-477" rx="136.207" ry="26.7407"/>
<text text-anchor="middle" x="321" y="-480.8" font-family="Times,serif" font-size="14.00">Node7</text>
<text text-anchor="middle" x="321" y="-465.8" font-family="Times,serif" font-size="14.00">module = nn.Reshape(1x3x500)</text>
</a>
</g>
</g>
<!-- n5&#45;&gt;n7 -->
<g id="edge6" class="edge"><title>n5&#45;&gt;n7</title>
<path fill="none" stroke="black" d="M318.884,-540.073C319.159,-531.999 319.468,-522.943 319.763,-514.296"/>
<polygon fill="black" stroke="black" points="323.269,-514.159 320.112,-504.046 316.273,-513.921 323.269,-514.159"/>
</g>
<!-- n8 -->
<g id="node8" class="node"><title>n8</title>
<g id="a_node8"><a xlink:title="[test_sparse.lua]:35">
<ellipse fill="none" stroke="black" cx="216" cy="-117" rx="94.0678" ry="26.7407"/>
<text text-anchor="middle" x="216" y="-120.8" font-family="Times,serif" font-size="14.00">Node8</text>
<text text-anchor="middle" x="216" y="-105.8" font-family="Times,serif" font-size="14.00">module = nn.Identity</text>
</a>
</g>
</g>
<!-- n6&#45;&gt;n8 -->
<g id="edge7" class="edge"><title>n6&#45;&gt;n8</title>
<path fill="none" stroke="black" d="M115.268,-360.184C128.185,-320.722 154.629,-243.313 183,-180 187.071,-170.915 191.901,-161.32 196.593,-152.463"/>
<polygon fill="black" stroke="black" points="199.732,-154.016 201.395,-143.552 193.57,-150.695 199.732,-154.016"/>
</g>
<!-- n9 -->
<g id="node9" class="node"><title>n9</title>
<g id="a_node9"><a xlink:title="[test_sparse.lua]:40">
<ellipse fill="none" stroke="black" cx="322" cy="-387" rx="108.342" ry="26.7407"/>
<text text-anchor="middle" x="322" y="-390.8" font-family="Times,serif" font-size="14.00">Node9</text>
<text text-anchor="middle" x="322" y="-375.8" font-family="Times,serif" font-size="14.00">module = nn.Embedding</text>
</a>
</g>
</g>
<!-- n7&#45;&gt;n9 -->
<g id="edge8" class="edge"><title>n7&#45;&gt;n9</title>
<path fill="none" stroke="black" d="M321.295,-450.073C321.386,-441.999 321.489,-432.943 321.588,-424.296"/>
<polygon fill="black" stroke="black" points="325.09,-424.085 321.704,-414.046 318.091,-424.005 325.09,-424.085"/>
</g>
<!-- n10 -->
<g id="node10" class="node"><title>n10</title>
<g id="a_node10"><a xlink:title="[[C]]:&#45;1">
<ellipse fill="none" stroke="black" cx="216" cy="-27" rx="51.99" ry="26.7407"/>
<text text-anchor="middle" x="216" y="-30.8" font-family="Times,serif" font-size="14.00">Node10</text>
<text text-anchor="middle" x="216" y="-15.8" font-family="Times,serif" font-size="14.00">input = {}</text>
</a>
</g>
</g>
<!-- n8&#45;&gt;n10 -->
<g id="edge9" class="edge"><title>n8&#45;&gt;n10</title>
<path fill="none" stroke="black" d="M216,-90.0731C216,-81.9993 216,-72.9428 216,-64.2961"/>
<polygon fill="black" stroke="black" points="219.5,-64.0457 216,-54.0457 212.5,-64.0458 219.5,-64.0457"/>
</g>
<!-- n11 -->
<g id="node11" class="node"><title>n11</title>
<g id="a_node11"><a xlink:title="[test_sparse.lua]:38">
<ellipse fill="none" stroke="black" cx="302" cy="-297" rx="107.22" ry="26.7407"/>
<text text-anchor="middle" x="302" y="-300.8" font-family="Times,serif" font-size="14.00">Node11</text>
<text text-anchor="middle" x="302" y="-285.8" font-family="Times,serif" font-size="14.00">module = nn.Reshape(3)</text>
</a>
</g>
</g>
<!-- n9&#45;&gt;n11 -->
<g id="edge10" class="edge"><title>n9&#45;&gt;n11</title>
<path fill="none" stroke="black" d="M316.108,-360.073C314.252,-351.911 312.169,-342.744 310.184,-334.011"/>
<polygon fill="black" stroke="black" points="313.549,-333.021 307.919,-324.046 306.723,-334.573 313.549,-333.021"/>
</g>
<!-- n12 -->
<g id="node12" class="node"><title>n12</title>
<g id="a_node12"><a xlink:title="[test_sparse.lua]:37">
<ellipse fill="none" stroke="black" cx="285" cy="-207" rx="93.0077" ry="26.7407"/>
<text text-anchor="middle" x="285" y="-210.8" font-family="Times,serif" font-size="14.00">Node12</text>
<text text-anchor="middle" x="285" y="-195.8" font-family="Times,serif" font-size="14.00">module = nn.Narrow</text>
</a>
</g>
</g>
<!-- n11&#45;&gt;n12 -->
<g id="edge11" class="edge"><title>n11&#45;&gt;n12</title>
<path fill="none" stroke="black" d="M296.991,-270.073C295.415,-261.911 293.644,-252.744 291.957,-244.011"/>
<polygon fill="black" stroke="black" points="295.365,-243.2 290.032,-234.046 288.492,-244.528 295.365,-243.2"/>
</g>
<!-- n12&#45;&gt;n8 -->
<g id="edge12" class="edge"><title>n12&#45;&gt;n8</title>
<path fill="none" stroke="black" d="M265.042,-180.547C257.891,-171.426 249.718,-161.003 242.122,-151.316"/>
<polygon fill="black" stroke="black" points="244.837,-149.106 235.913,-143.396 239.329,-153.425 244.837,-149.106"/>
</g>
</g>
</svg>
