<?xml version="1.0" encoding="UTF-8" standalone="no"?>
<!DOCTYPE svg PUBLIC "-//W3C//DTD SVG 1.1//EN"
 "http://www.w3.org/Graphics/SVG/1.1/DTD/svg11.dtd">
<!-- Generated by graphviz version 2.36.0 (20140111.2315)
 -->
<!-- Title: G Pages: 1 -->
<svg width="470pt" height="894pt"
 viewBox="0.00 0.00 470.00 894.00" xmlns="http://www.w3.org/2000/svg" xmlns:xlink="http://www.w3.org/1999/xlink">
<g id="graph0" class="graph" transform="scale(1 1) rotate(0) translate(4 890)">
<title>G</title>
<polygon fill="white" stroke="none" points="-4,4 -4,-890 466,-890 466,4 -4,4"/>
<!-- n1 -->
<g id="node1" class="node"><title>n1</title>
<g id="a_node1"><a xlink:title="[test_sparse.lua]:44">
<ellipse fill="none" stroke="black" cx="217" cy="-117" rx="143.314" ry="26.7407"/>
<text text-anchor="middle" x="217" y="-120.8" font-family="Times,serif" font-size="14.00">Node1</text>
<text text-anchor="middle" x="217" y="-105.8" font-family="Times,serif" font-size="14.00">module = nn.Linear(4596 &#45;&gt; 431)</text>
</a>
</g>
</g>
<!-- n2 -->
<g id="node2" class="node"><title>n2</title>
<g id="a_node2"><a xlink:title="[[C]]:&#45;1">
<ellipse fill="none" stroke="black" cx="217" cy="-27" rx="51.99" ry="26.7407"/>
<text text-anchor="middle" x="217" y="-30.8" font-family="Times,serif" font-size="14.00">Node2</text>
<text text-anchor="middle" x="217" y="-15.8" font-family="Times,serif" font-size="14.00">input = {}</text>
</a>
</g>
</g>
<!-- n1&#45;&gt;n2 -->
<g id="edge1" class="edge"><title>n1&#45;&gt;n2</title>
<path fill="none" stroke="black" d="M217,-90.0731C217,-81.9993 217,-72.9428 217,-64.2961"/>
<polygon fill="black" stroke="black" points="220.5,-64.0457 217,-54.0457 213.5,-64.0458 220.5,-64.0457"/>
</g>
<!-- n3 -->
<g id="node3" class="node"><title>n3</title>
<g id="a_node3"><a xlink:title="[test_sparse.lua]:43">
<ellipse fill="none" stroke="black" cx="217" cy="-218" rx="124.176" ry="37.4533"/>
<text text-anchor="middle" x="217" y="-229.3" font-family="Times,serif" font-size="14.00">Node3</text>
<text text-anchor="start" x="137" y="-214.3" font-family="Times,serif" font-size="14.00">module = nn.JoinTable</text>
<text text-anchor="middle" x="217" y="-199.3" font-family="Times,serif" font-size="14.00">mapindex = {Node4,Node5}</text>
</a>
</g>
</g>
<!-- n3&#45;&gt;n1 -->
<g id="edge2" class="edge"><title>n3&#45;&gt;n1</title>
<path fill="none" stroke="black" d="M217,-180.417C217,-171.802 217,-162.626 217,-154.035"/>
<polygon fill="black" stroke="black" points="220.5,-153.924 217,-143.924 213.5,-153.924 220.5,-153.924"/>
</g>
<!-- n4 -->
<g id="node4" class="node"><title>n4</title>
<g id="a_node4"><a xlink:title="[test_sparse.lua]:39">
<ellipse fill="none" stroke="black" cx="108" cy="-499" rx="108.342" ry="26.7407"/>
<text text-anchor="middle" x="108" y="-502.8" font-family="Times,serif" font-size="14.00">Node4</text>
<text text-anchor="middle" x="108" y="-487.8" font-family="Times,serif" font-size="14.00">module = nn.Embedding</text>
</a>
</g>
</g>
<!-- n4&#45;&gt;n3 -->
<g id="edge3" class="edge"><title>n4&#45;&gt;n3</title>
<path fill="none" stroke="black" d="M118.157,-472.003C136.63,-424.718 175.948,-324.077 199.04,-264.971"/>
<polygon fill="black" stroke="black" points="202.36,-266.09 202.739,-255.502 195.84,-263.543 202.36,-266.09"/>
</g>
<!-- n5 -->
<g id="node5" class="node"><title>n5</title>
<g id="a_node5"><a xlink:title="[test_sparse.lua]:42">
<ellipse fill="none" stroke="black" cx="290" cy="-319" rx="82.0366" ry="26.7407"/>
<text text-anchor="middle" x="290" y="-322.8" font-family="Times,serif" font-size="14.00">Node5</text>
<text text-anchor="middle" x="290" y="-307.8" font-family="Times,serif" font-size="14.00">module = nn.Sum</text>
</a>
</g>
</g>
<!-- n5&#45;&gt;n3 -->
<g id="edge4" class="edge"><title>n5&#45;&gt;n3</title>
<path fill="none" stroke="black" d="M271.39,-292.762C264.657,-283.631 256.845,-273.036 249.278,-262.775"/>
<polygon fill="black" stroke="black" points="252.04,-260.622 243.288,-254.651 246.406,-264.776 252.04,-260.622"/>
</g>
<!-- n6 -->
<g id="node6" class="node"><title>n6</title>
<g id="a_node6"><a xlink:title="[test_sparse.lua]:36">
<ellipse fill="none" stroke="black" cx="114" cy="-589" rx="87.5215" ry="26.7407"/>
<text text-anchor="middle" x="114" y="-592.8" font-family="Times,serif" font-size="14.00">Node6</text>
<text text-anchor="middle" x="114" y="-577.8" font-family="Times,serif" font-size="14.00">module = nn.Select</text>
</a>
</g>
</g>
<!-- n6&#45;&gt;n4 -->
<g id="edge5" class="edge"><title>n6&#45;&gt;n4</title>
<path fill="none" stroke="black" d="M112.232,-562.073C111.682,-553.999 111.064,-544.943 110.475,-536.296"/>
<polygon fill="black" stroke="black" points="113.948,-535.784 109.776,-526.046 106.964,-536.261 113.948,-535.784"/>
</g>
<!-- n7 -->
<g id="node7" class="node"><title>n7</title>
<g id="a_node7"><a xlink:title="[test_sparse.lua]:41">
<ellipse fill="none" stroke="black" cx="326" cy="-409" rx="136.207" ry="26.7407"/>
<text text-anchor="middle" x="326" y="-412.8" font-family="Times,serif" font-size="14.00">Node7</text>
<text text-anchor="middle" x="326" y="-397.8" font-family="Times,serif" font-size="14.00">module = nn.Reshape(1x3x500)</text>
</a>
</g>
</g>
<!-- n7&#45;&gt;n5 -->
<g id="edge6" class="edge"><title>n7&#45;&gt;n5</title>
<path fill="none" stroke="black" d="M315.394,-382.073C311.951,-373.659 308.072,-364.177 304.402,-355.204"/>
<polygon fill="black" stroke="black" points="307.556,-353.672 300.531,-345.742 301.078,-356.322 307.556,-353.672"/>
</g>
<!-- n8 -->
<g id="node8" class="node"><title>n8</title>
<g id="a_node8"><a xlink:title="[test_sparse.lua]:35">
<ellipse fill="none" stroke="black" cx="197" cy="-769" rx="94.0678" ry="26.7407"/>
<text text-anchor="middle" x="197" y="-772.8" font-family="Times,serif" font-size="14.00">Node8</text>
<text text-anchor="middle" x="197" y="-757.8" font-family="Times,serif" font-size="14.00">module = nn.Identity</text>
</a>
</g>
</g>
<!-- n8&#45;&gt;n6 -->
<g id="edge7" class="edge"><title>n8&#45;&gt;n6</title>
<path fill="none" stroke="black" d="M184.931,-742.117C170.506,-711.182 146.307,-659.285 130.248,-624.844"/>
<polygon fill="black" stroke="black" points="133.347,-623.209 125.949,-615.625 127.003,-626.167 133.347,-623.209"/>
</g>
<!-- n12 -->
<g id="node12" class="node"><title>n12</title>
<g id="a_node12"><a xlink:title="[test_sparse.lua]:37">
<ellipse fill="none" stroke="black" cx="304" cy="-679" rx="93.0077" ry="26.7407"/>
<text text-anchor="middle" x="304" y="-682.8" font-family="Times,serif" font-size="14.00">Node12</text>
<text text-anchor="middle" x="304" y="-667.8" font-family="Times,serif" font-size="14.00">module = nn.Narrow</text>
</a>
</g>
</g>
<!-- n8&#45;&gt;n12 -->
<g id="edge12" class="edge"><title>n8&#45;&gt;n12</title>
<path fill="none" stroke="black" d="M226.805,-743.487C238.993,-733.464 253.237,-721.749 266.147,-711.131"/>
<polygon fill="black" stroke="black" points="268.483,-713.742 273.983,-704.687 264.037,-708.335 268.483,-713.742"/>
</g>
<!-- n9 -->
<g id="node9" class="node"><title>n9</title>
<g id="a_node9"><a xlink:title="[test_sparse.lua]:40">
<ellipse fill="none" stroke="black" cx="344" cy="-499" rx="108.342" ry="26.7407"/>
<text text-anchor="middle" x="344" y="-502.8" font-family="Times,serif" font-size="14.00">Node9</text>
<text text-anchor="middle" x="344" y="-487.8" font-family="Times,serif" font-size="14.00">module = nn.Embedding</text>
</a>
</g>
</g>
<!-- n9&#45;&gt;n7 -->
<g id="edge8" class="edge"><title>n9&#45;&gt;n7</title>
<path fill="none" stroke="black" d="M338.697,-472.073C337.027,-463.911 335.152,-454.744 333.366,-446.011"/>
<polygon fill="black" stroke="black" points="336.761,-445.141 331.328,-436.046 329.903,-446.544 336.761,-445.141"/>
</g>
<!-- n10 -->
<g id="node10" class="node"><title>n10</title>
<g id="a_node10"><a xlink:title="[[C]]:&#45;1">
<ellipse fill="none" stroke="black" cx="197" cy="-859" rx="51.99" ry="26.7407"/>
<text text-anchor="middle" x="197" y="-862.8" font-family="Times,serif" font-size="14.00">Node10</text>
<text text-anchor="middle" x="197" y="-847.8" font-family="Times,serif" font-size="14.00">input = {}</text>
</a>
</g>
</g>
<!-- n10&#45;&gt;n8 -->
<g id="edge9" class="edge"><title>n10&#45;&gt;n8</title>
<path fill="none" stroke="black" d="M197,-832.073C197,-823.999 197,-814.943 197,-806.296"/>
<polygon fill="black" stroke="black" points="200.5,-806.046 197,-796.046 193.5,-806.046 200.5,-806.046"/>
</g>
<!-- n11 -->
<g id="node11" class="node"><title>n11</title>
<g id="a_node11"><a xlink:title="[test_sparse.lua]:38">
<ellipse fill="none" stroke="black" cx="338" cy="-589" rx="107.22" ry="26.7407"/>
<text text-anchor="middle" x="338" y="-592.8" font-family="Times,serif" font-size="14.00">Node11</text>
<text text-anchor="middle" x="338" y="-577.8" font-family="Times,serif" font-size="14.00">module = nn.Reshape(3)</text>
</a>
</g>
</g>
<!-- n11&#45;&gt;n9 -->
<g id="edge10" class="edge"><title>n11&#45;&gt;n9</title>
<path fill="none" stroke="black" d="M339.768,-562.073C340.318,-553.999 340.936,-544.943 341.525,-536.296"/>
<polygon fill="black" stroke="black" points="345.036,-536.261 342.224,-526.046 338.052,-535.784 345.036,-536.261"/>
</g>
<!-- n12&#45;&gt;n11 -->
<g id="edge11" class="edge"><title>n12&#45;&gt;n11</title>
<path fill="none" stroke="black" d="M314.017,-652.073C317.239,-643.733 320.867,-634.345 324.306,-625.442"/>
<polygon fill="black" stroke="black" points="327.598,-626.635 327.937,-616.046 321.068,-624.112 327.598,-626.635"/>
</g>
</g>
</svg>
